<svg width="24" height="24" viewBox="0 0 24 24" fill="none" xmlns="http://www.w3.org/2000/svg">
<path d="M22.8569 10.286H22.8809C23.2943 10.286 23.6676 10.478 23.9343 10.788C24.2098 11.089 24.3805 11.509 24.3805 11.974V12.002V12.001V12.028C24.3805 12.493 24.2098 12.913 23.9343 13.213C23.6667 13.523 23.2934 13.715 22.88 13.715H22.8551H22.856H22.6774L21.3076 22.584C21.2496 22.9826 21.064 23.3436 20.7858 23.599L20.7831 23.601C20.5254 23.85 20.1876 24.002 19.8187 24.002H4.55915C4.19026 24.002 3.85248 23.85 3.59292 23.599L3.5947 23.601C3.31741 23.3476 3.13161 22.9893 3.07204 22.593L3.07115 22.583L1.70137 13.714H1.4987C1.08537 13.714 0.712036 13.522 0.445369 13.212C0.303988 13.0581 0.19161 12.8738 0.114944 12.6701C0.0382771 12.4663 -0.00110569 12.2472 -0.000853287 12.026V11.972C-0.000853287 11.507 0.169813 11.087 0.445369 10.787C0.712924 10.477 1.08626 10.285 1.49959 10.285H1.52448H1.52359L22.8569 10.286ZM5.76981 21C5.86955 20.9923 5.96683 20.9618 6.05566 20.9102C6.14448 20.8586 6.22296 20.787 6.28626 20.7L6.28715 20.699C6.35468 20.6146 6.40596 20.5155 6.43778 20.4077C6.4696 20.3 6.48126 20.186 6.47204 20.073V20.076L6.0907 14.504C6.0839 14.3918 6.05672 14.2823 6.01086 14.1824C5.965 14.0825 5.90141 13.9942 5.82404 13.923L5.82315 13.922C5.74816 13.846 5.66002 13.7883 5.56426 13.7525C5.4685 13.7167 5.36719 13.7036 5.2667 13.714H5.26937C5.16963 13.7216 5.07235 13.7522 4.98353 13.8038C4.8947 13.8554 4.81622 13.9269 4.75292 14.014L4.75204 14.015C4.68451 14.0993 4.63322 14.1985 4.6014 14.3062C4.56958 14.414 4.55792 14.5279 4.56715 14.641V14.638L4.94848 20.21C4.96117 20.4259 5.04861 20.6277 5.19204 20.772L5.19292 20.773C5.33015 20.9195 5.51217 21.0011 5.70137 21.001H5.71115H5.71026L5.76981 21ZM10.6631 20.144V14.564C10.6634 14.4529 10.6436 14.3429 10.6047 14.2408C10.5659 14.1386 10.509 14.0465 10.4374 13.97C10.3691 13.8895 10.2871 13.8255 10.1961 13.7818C10.1052 13.7382 10.0073 13.7158 9.90848 13.716H9.89426C9.79551 13.7157 9.69775 13.738 9.60696 13.7817C9.51617 13.8254 9.43426 13.8894 9.36626 13.97C9.29472 14.0467 9.23782 14.1391 9.19901 14.2414C9.16019 14.3437 9.14028 14.4538 9.14048 14.565V20.153C9.14048 20.387 9.2267 20.598 9.36626 20.747C9.4345 20.8275 9.51657 20.8915 9.60749 20.9351C9.69842 20.9788 9.79629 21.0012 9.89515 21.001H9.90937C10.0081 21.0013 10.1059 20.9789 10.1967 20.9353C10.2875 20.8916 10.3694 20.8275 10.4374 20.747C10.5099 20.6702 10.5676 20.5775 10.6071 20.4747C10.6465 20.3718 10.6668 20.261 10.6667 20.149V20.143L10.6631 20.144ZM15.2347 20.144V14.564C15.235 14.4529 15.2151 14.3429 15.1763 14.2408C15.1375 14.1386 15.0805 14.0465 15.0089 13.97C14.9407 13.8895 14.8586 13.8255 14.7677 13.7818C14.6768 13.7382 14.5789 13.7158 14.48 13.716H14.4658C14.3671 13.7157 14.2693 13.738 14.1785 13.7817C14.0877 13.8254 14.0058 13.8894 13.9378 13.97C13.8663 14.0467 13.8094 14.1391 13.7706 14.2414C13.7317 14.3437 13.7118 14.4538 13.712 14.565V20.153C13.712 20.387 13.7983 20.598 13.9378 20.747C14.0061 20.8275 14.0881 20.8915 14.1791 20.9351C14.27 20.9788 14.3678 21.0012 14.4667 21.001H14.4809C14.5797 21.0013 14.6774 20.9789 14.7682 20.9353C14.859 20.8916 14.9409 20.8275 15.0089 20.747C15.0814 20.6702 15.1392 20.5775 15.1786 20.4747C15.2181 20.3718 15.2384 20.261 15.2383 20.149V20.143L15.2347 20.144ZM19.4249 20.21L19.8063 14.638C19.8149 14.5253 19.8029 14.4118 19.7711 14.3045C19.7393 14.1972 19.6884 14.0983 19.6214 14.014L19.6223 14.015C19.5591 13.9278 19.4808 13.8561 19.3922 13.8041C19.3035 13.7522 19.2064 13.7212 19.1067 13.713H19.104C19.0039 13.7033 18.903 13.7168 18.8076 13.7525C18.7122 13.7883 18.6243 13.8456 18.5494 13.921L18.5503 13.92C18.4728 13.991 18.409 14.0791 18.3628 14.1788C18.3167 14.2786 18.2891 14.3878 18.2818 14.5V14.503L17.9005 20.075C17.8919 20.1877 17.9038 20.3012 17.9356 20.4085C17.9674 20.5158 18.0184 20.6146 18.0854 20.699L18.0845 20.698C18.1476 20.7851 18.2259 20.8569 18.3146 20.9088C18.4032 20.9607 18.5004 20.9918 18.6 21H18.6711C18.8606 21 19.0428 20.9184 19.1805 20.772C19.3257 20.6279 19.4148 20.4253 19.4285 20.208V20.205L19.4249 20.21ZM5.6667 3.90998L4.56004 9.42798H2.98848L4.19026 3.52198C4.33515 2.73698 4.7147 2.07198 5.24092 1.60698L5.24715 1.60198C5.77671 1.11885 6.43823 0.856066 7.12004 0.857978H7.15381H7.15204H9.13959V0.849978C9.13959 0.615978 9.22581 0.404978 9.36537 0.255978C9.43367 0.175245 9.51586 0.111002 9.60694 0.0671621C9.69802 0.023322 9.79608 0.000803154 9.89515 0.000977568H14.4836C14.6916 0.000977568 14.8791 0.0979775 15.0116 0.254978C15.0831 0.331745 15.14 0.424081 15.1788 0.526369C15.2177 0.628658 15.2376 0.738759 15.2374 0.849978V0.857978H17.2578C17.9698 0.857978 18.6231 1.13798 19.1351 1.60598L19.1298 1.60098C19.669 2.0744 20.0421 2.74702 20.1831 3.49998L20.1867 3.52098L21.3885 9.42698H19.8169L18.7103 3.90898C18.6298 3.53031 18.4405 3.19213 18.1716 2.94698L18.1689 2.94398C17.9073 2.70092 17.5784 2.56828 17.2391 2.56898H15.2347V2.57698C15.235 2.68806 15.2151 2.79804 15.1763 2.90018C15.1375 3.00232 15.0805 3.09447 15.0089 3.17098C14.9407 3.25145 14.8586 3.31547 14.7677 3.35914C14.6768 3.4028 14.5789 3.4252 14.48 3.42498H9.89515C9.7964 3.4253 9.69864 3.40294 9.60785 3.35926C9.51706 3.31559 9.43515 3.25152 9.36715 3.17098C9.29561 3.09421 9.23871 3.00187 9.19989 2.89959C9.16108 2.7973 9.14117 2.6872 9.14137 2.57598V2.56798H7.13692C6.79682 2.56755 6.46729 2.70091 6.20537 2.94498L6.20804 2.94298C5.94113 3.18616 5.75277 3.52141 5.67204 3.89698L5.67026 3.90898L5.6667 3.90998Z" fill="white"/>
</svg>
