<svg width="25" height="24" viewBox="0 0 25 24" fill="none" xmlns="http://www.w3.org/2000/svg">
<path d="M15.8674 12.4874C18.3574 13.2154 20.5444 14.7307 22.1007 16.8062C23.6571 18.8818 24.4989 21.4058 24.5 24H0.5C0.500532 21.4056 1.34211 18.8813 2.89852 16.8057C4.45494 14.73 6.64231 13.2148 9.13262 12.4874L12.5 17.5385L15.8674 12.4874ZM18.5 6C18.5 7.5913 17.8679 9.11742 16.7426 10.2426C15.6174 11.3679 14.0913 12 12.5 12C10.9087 12 9.38258 11.3679 8.25736 10.2426C7.13214 9.11742 6.5 7.5913 6.5 6C6.5 4.4087 7.13214 2.88258 8.25736 1.75736C9.38258 0.632141 10.9087 0 12.5 0C14.0913 0 15.6174 0.632141 16.7426 1.75736C17.8679 2.88258 18.5 4.4087 18.5 6V6Z" fill="#AD8D87"/>
</svg>
